<svg width="44" height="44" viewBox="0 0 44 44" fill="none" xmlns="http://www.w3.org/2000/svg">
<circle cx="22" cy="22" r="22" fill="url(#paint0_radial_47_362)"/>
<path fill-rule="evenodd" clip-rule="evenodd" d="M21.9996 35.3332C29.3634 35.3332 35.3329 29.3636 35.3329 21.9998C35.3329 14.636 29.3634 8.6665 21.9996 8.6665C14.6358 8.6665 8.66626 14.636 8.66626 21.9998C8.66626 29.3636 14.6358 35.3332 21.9996 35.3332ZM17.9709 28.0404H14.843C14.1014 28.0404 13.7306 28.0404 13.5085 27.8968C13.2685 27.7416 13.1171 27.4812 13.101 27.196C13.0862 26.9321 13.2698 26.6103 13.6371 25.9669L13.6373 25.9666L20.4856 13.9691C20.8583 13.3161 21.0447 12.9896 21.2818 12.868C21.538 12.7367 21.8418 12.7365 22.0982 12.8675C22.3355 12.9886 22.5223 13.3149 22.896 13.9674L24.4755 16.725L24.4755 16.7251C24.7472 17.1995 24.8831 17.4367 24.9428 17.687C25.0079 17.9595 25.008 18.2433 24.9432 18.5158C24.8837 18.7662 24.748 19.0036 24.4767 19.4782L20.3814 26.6423C20.1062 27.124 19.9685 27.3648 19.7799 27.5448C19.5746 27.7408 19.3257 27.8852 19.0536 27.9661C18.8035 28.0404 18.526 28.0404 17.9709 28.0404ZM29.1302 28.0404H25.5038C24.7554 28.0404 24.3812 28.0404 24.1585 27.8956C23.9178 27.739 23.7668 27.4766 23.7526 27.1901C23.7394 26.9249 23.9277 26.6018 24.3043 25.9557L26.1145 22.85C26.4864 22.2121 26.6724 21.8931 26.9078 21.7736C27.1622 21.6445 27.463 21.6443 27.7177 21.773C27.9533 21.8921 28.1396 22.2108 28.5123 22.8481L28.5124 22.8483L30.3286 25.954C30.7067 26.6005 30.8957 26.9238 30.8828 27.1892C30.8689 27.4759 30.718 27.7386 30.4771 27.8954C30.2544 28.0404 29.8796 28.0404 29.1302 28.0404Z" fill="#7567BA"/>
<defs>
<radialGradient id="paint0_radial_47_362" cx="0" cy="0" r="1" gradientUnits="userSpaceOnUse" gradientTransform="translate(14.2353 14.0735) rotate(56.0702) scale(32.1688)">
<stop stop-color="#ECEFF7"/>
<stop offset="0.564858" stop-color="#ADA4CF"/>
<stop offset="1" stop-color="#584C85"/>
</radialGradient>
</defs>
</svg>
