<svg width="26" height="25" viewBox="0 0 26 25" fill="none" xmlns="http://www.w3.org/2000/svg">
<circle cx="12.875" cy="12.375" r="12.375" fill="url(#paint0_radial_52_452)"/>
<path d="M13.094 5.5V11.0215C13.094 11.0449 13.0705 11.0683 13.0471 11.0683C12.883 11.14 12.7424 11.211 12.5783 11.282C12.3674 11.3764 12.133 11.4715 11.922 11.59L11.1486 11.9449L10.5157 12.2295L9.74224 12.5851C9.5313 12.6802 9.32035 12.7747 9.08596 12.8932C8.92189 12.9642 8.73439 13.0593 8.57032 13.1303C8.54688 13.1303 8.54688 13.1537 8.52344 13.1303H8.5C8.57032 13.0117 8.64063 12.9166 8.71095 12.7988C9.08596 12.1586 9.48442 11.519 9.85944 10.8788C10.2579 10.1924 10.6798 9.50464 11.0782 8.81756C11.4533 8.17802 11.8283 7.53848 12.2033 6.92239C12.4846 6.44759 12.7658 5.99824 13.0236 5.52344C13.0705 5.52344 13.0705 5.5 13.094 5.5C13.0705 5.5 13.094 5.5 13.094 5.5V5.5Z" fill="#7567BA"/>
<path d="M17.6411 13.1303C17.2895 13.3673 16.9145 13.5803 16.5629 13.7933C15.4144 14.481 14.2894 15.1447 13.1409 15.8317C13.1174 15.8317 13.1174 15.8552 13.094 15.8552C13.0706 15.8552 13.0706 15.8317 13.0706 15.8317V11.0684C13.0706 11.0449 13.094 11.0449 13.1174 11.0449C13.2112 11.0918 13.3049 11.14 13.4221 11.1869C13.7034 11.3295 14.0081 11.4481 14.2894 11.59C14.5472 11.7086 14.7816 11.8271 15.0394 11.9215C15.2972 12.0401 15.5316 12.1586 15.7894 12.2771C16.0004 12.3722 16.2348 12.4666 16.4457 12.5852C16.6567 12.6803 16.891 12.7747 17.102 12.8932C17.2661 12.9642 17.4301 13.0593 17.6176 13.1303C17.6176 13.1068 17.6176 13.1303 17.6411 13.1303V13.1303Z" fill="#7567BA"/>
<path d="M13.094 20.5C13.094 20.5 13.0705 20.5 13.094 20.5C13.0705 20.5 13.0705 20.5 13.0471 20.4759C12.5783 19.8129 12.133 19.1727 11.6642 18.509L10.2579 16.5188C9.81256 15.8792 9.34379 15.2397 8.89845 14.5754L8.54688 14.0778C8.54688 14.0544 8.52344 14.0544 8.52344 14.0309C8.54688 14.0309 8.54688 14.0544 8.57031 14.0544C9.20316 14.4334 9.85943 14.8125 10.4923 15.1915C11.2189 15.6422 11.9689 16.0688 12.6955 16.5188C12.8127 16.5898 12.9533 16.6608 13.0705 16.7317C13.094 16.7317 13.094 16.7558 13.094 16.7793V20.5Z" fill="#7567BA"/>
<path d="M8.5 12.8822C8.5 12.8588 8.5 12.8588 8.5 12.8822C8.73439 12.7637 8.96877 12.6693 9.20316 12.5508L10.1173 12.1242C10.3516 12.0056 10.586 11.9112 10.8204 11.7927C11.1486 11.6266 11.5001 11.4846 11.8283 11.3186C12.0627 11.2235 12.297 11.1049 12.5314 11.0105C12.6955 10.9395 12.8596 10.8685 13.0236 10.7734C13.0471 10.7734 13.0471 10.75 13.0705 10.75V15.5837C13.0471 15.6078 13.0471 15.5837 13.0236 15.5837C12.9533 15.5368 12.883 15.5127 12.8361 15.4652L8.54688 12.9063C8.52344 12.8822 8.5 12.8822 8.5 12.8822ZM17.5707 13.7595C17.5707 13.7829 17.5707 13.7829 17.5473 13.8064C16.1878 15.7498 14.8284 17.6691 13.469 19.6124C13.3283 19.8254 13.1877 20.0149 13.0471 20.2285V16.4603C13.3518 16.2708 13.6565 16.0813 13.9612 15.9159L17.5473 13.7829C17.5473 13.7595 17.5707 13.7595 17.5707 13.7595V13.7595Z" fill="#5E5299"/>
<path d="M13.094 11.0449V5.52478L17.5942 13.0599C17.6176 13.0834 17.6411 13.1068 17.6411 13.1309C17.5473 13.084 17.4536 13.0358 17.3364 12.989C17.2192 12.9414 17.102 12.8704 16.9848 12.8229C16.9145 12.7994 16.8442 12.7519 16.7504 12.7278C16.6332 12.6809 16.4926 12.6092 16.3754 12.5624C16.3051 12.5383 16.2348 12.4914 16.1644 12.4673L15.6722 12.2543C15.5785 12.2068 15.5082 12.1833 15.4144 12.1358C15.2972 12.0882 15.18 12.0173 15.0628 11.9697C14.9925 11.9463 14.9222 11.8987 14.8519 11.8753L14.3597 11.6617C14.2659 11.6148 14.1956 11.5907 14.1019 11.5431C13.9847 11.4963 13.8675 11.4246 13.7503 11.3771C13.68 11.3302 13.5862 11.3061 13.5159 11.2592L13.094 11.0456V11.0449Z" fill="#989EEB"/>
<defs>
<radialGradient id="paint0_radial_52_452" cx="0" cy="0" r="1" gradientUnits="userSpaceOnUse" gradientTransform="translate(8.50735 7.91636) rotate(56.0702) scale(18.095)">
<stop stop-color="#ECEFF7"/>
<stop offset="0.564858" stop-color="#ADA4CF"/>
<stop offset="1" stop-color="#584C85"/>
</radialGradient>
</defs>
</svg>
