<svg width="44" height="44" viewBox="0 0 44 44" fill="none" xmlns="http://www.w3.org/2000/svg">
<circle cx="22" cy="22" r="22" fill="url(#paint0_radial_129_590)"/>
<path d="M27.7657 18.1621C27.3498 17.917 26.8092 17.917 26.3518 18.1621L23.1079 20.0412L20.9038 21.2667L17.66 23.1458C17.2442 23.3909 16.7035 23.3909 16.2461 23.1458L13.6677 21.6752C13.2518 21.4301 12.9607 20.9808 12.9607 20.4906V17.5902C12.9607 17.1 13.2102 16.6507 13.6677 16.4056L16.2045 14.9758C16.6204 14.7307 17.161 14.7307 17.6184 14.9758L20.1553 16.4056C20.5711 16.6507 20.8622 17.1 20.8622 17.5902V19.4693L23.0663 18.203V16.3239C23.0663 15.8337 22.8169 15.3843 22.3594 15.1392L17.66 12.4431C17.2442 12.198 16.7035 12.198 16.2461 12.4431L11.4636 15.1392C11.0061 15.3843 10.7566 15.8337 10.7566 16.3239V21.7569C10.7566 22.2471 11.0061 22.6965 11.4636 22.9416L16.2461 25.6377C16.6619 25.8828 17.2026 25.8828 17.66 25.6377L20.9038 23.7994L23.1079 22.5331L26.3518 20.6948C26.7676 20.4497 27.3082 20.4497 27.7657 20.6948L30.3025 22.1246C30.7183 22.3697 31.0094 22.8191 31.0094 23.3092V26.2095C31.0094 26.6998 30.76 27.1491 30.3025 27.3942L27.7657 28.8649C27.3498 29.1099 26.8092 29.1099 26.3518 28.8649L23.815 27.4351C23.399 27.19 23.1079 26.7406 23.1079 26.2504V24.3714L20.9038 25.6377V27.5168C20.9038 28.0069 21.1534 28.4563 21.6108 28.7014L26.3933 31.3975C26.8092 31.6426 27.3498 31.6426 27.8072 31.3975L32.5898 28.7014C33.0056 28.4563 33.2968 28.0069 33.2968 27.5168V22.0837C33.2968 21.5935 33.0472 21.1442 32.5898 20.8991L27.7657 18.1621Z" fill="#7D70BF"/>
<defs>
<radialGradient id="paint0_radial_129_590" cx="0" cy="0" r="1" gradientUnits="userSpaceOnUse" gradientTransform="translate(14.2353 14.0735) rotate(56.0702) scale(32.1688)">
<stop stop-color="#ECEFF7"/>
<stop offset="0.564858" stop-color="#ADA4CF"/>
<stop offset="1" stop-color="#584C85"/>
</radialGradient>
</defs>
</svg>
